<?xml version="1.0" encoding="utf-8"?>
<!-- Generator: Adobe Illustrator 16.0.0, SVG Export Plug-In . SVG Version: 6.00 Build 0)  -->
<!DOCTYPE svg PUBLIC "-//W3C//DTD SVG 1.0//EN" "http://www.w3.org/TR/2001/REC-SVG-20010904/DTD/svg10.dtd">
<svg version="1.0" id="Layer_1" xmlns="http://www.w3.org/2000/svg" xmlns:xlink="http://www.w3.org/1999/xlink" x="0px" y="0px"
	 width="100px" height="100px" viewBox="0 0 100 100" enable-background="new 0 0 100 100" xml:space="preserve">
<path d="M43.333,83.334c0,3.678-2.984,6.666-6.666,6.666C32.988,90,30,87.012,30,83.334c0-3.686,2.988-6.668,6.667-6.668
	C40.349,76.666,43.333,79.648,43.333,83.334z"/>
<path d="M73.333,83.334c0,3.678-2.984,6.666-6.666,6.666S60,87.012,60,83.334c0-3.686,2.985-6.668,6.667-6.668
	S73.333,79.648,73.333,83.334z"/>
<path d="M90,23.333H71.331C69.785,15.726,63.063,10,55,10s-14.785,5.726-16.331,13.333H25.439l-1.064-6.751
	C23.802,12.962,20.335,10,16.667,10H10v6.667h7.637l8.428,53.373c0.286,1.811,2.021,3.295,3.854,3.295h53.414v-6.668H32.282
	L31.228,60h52.105L90,23.333z M46.159,21.364l3.538-3.537L55,23.131l5.303-5.304l3.538,3.537l-5.306,5.303l5.306,5.303l-3.538,3.537
	L55,30.202l-5.303,5.304l-3.538-3.537l5.306-5.303L46.159,21.364z M77.771,53.334H30.176L26.491,30h12.178
	C40.215,37.607,46.937,43.334,55,43.334S69.785,37.607,71.331,30h10.681L77.771,53.334z"/>
</svg>
