<svg width="33" height="31" viewBox="0 0 33 31" fill="none" xmlns="http://www.w3.org/2000/svg">
<path d="M30.0221 23.6646C30.0493 23.983 29.8009 24.2566 29.4845 24.2566H3.46918C3.15367 24.2566 2.90547 23.9843 2.9315 23.6665L4.79584 0.912269C4.81904 0.629618 5.05281 0.412109 5.33365 0.412109H27.5425C27.8225 0.412109 28.056 0.628527 28.0801 0.910361L30.0221 23.6646Z" fill="#1DCF65"/>
<path d="M32.0988 29.6013C32.1313 29.9984 31.8211 30.3388 31.4268 30.3388H1.59438C1.2009 30.3388 0.890922 30 0.922082 29.6036L3.06376 2.34707C3.09168 1.99259 3.38426 1.71962 3.73606 1.71962H29.1958C29.5468 1.71962 29.8391 1.9915 29.868 2.34489L32.0988 29.6013Z" fill="url(#paint0_linear_44336_2)"/>
<path d="M15.9231 21.6954C12.0401 21.6954 8.88123 17.8632 8.88123 13.1528C8.88123 12.9075 9.07803 12.7086 9.32097 12.7086C9.56391 12.7086 9.76072 12.9074 9.76072 13.1528C9.76072 17.3733 12.5252 20.8068 15.9233 20.8068C19.3213 20.8068 22.0858 17.3733 22.0858 13.1528C22.0858 12.9075 22.2826 12.7086 22.5255 12.7086C22.7685 12.7086 22.9653 12.9074 22.9653 13.1528C22.9651 17.8632 19.8061 21.6954 15.9231 21.6954Z" fill="white"/>
<path d="M20.2578 13.0337C20.1453 13.0337 20.0328 12.9904 19.9469 12.9036C19.7751 12.7301 19.7751 12.4488 19.9469 12.2753L22.2257 9.97293C22.3081 9.88967 22.42 9.84278 22.5366 9.84278C22.6533 9.84278 22.7651 9.88953 22.8476 9.97293L25.1042 12.253C25.2759 12.4264 25.2759 12.7077 25.1042 12.8812C24.9325 13.0546 24.654 13.0547 24.4823 12.8812L22.5365 10.9155L20.5687 12.9036C20.4828 12.9904 20.3703 13.0337 20.2578 13.0337Z" fill="white"/>
<defs>
<linearGradient id="paint0_linear_44336_2" x1="25.8733" y1="26.1506" x2="6.56122" y2="4.5913" gradientUnits="userSpaceOnUse">
<stop stop-color="#52D67A"/>
<stop offset="1" stop-color="#5AEE87"/>
</linearGradient>
</defs>
</svg>
